HIERARCHY
ROOT root
{
	OFFSET 0.000000 0.000000 0.000000
	CHANNELS 6 Xposition Yposition Zposition Zrotation Yrotation Xrotation
	JOINT lhip
	{
		OFFSET 0.058581 -0.082280 -0.017664
		CHANNELS 3 Zrotation Yrotation Xrotation
		JOINT lknee
		{
			OFFSET 0.043451 -0.386469 0.008037
			CHANNELS 3 Zrotation Yrotation Xrotation
			JOINT lankle
			{
				OFFSET -0.014790 -0.426874 -0.037428
				CHANNELS 3 Zrotation Yrotation Xrotation
				JOINT ltoe
				{
					OFFSET 0.041054 -0.060286 0.122042
					CHANNELS 3 Zrotation Yrotation Xrotation
					End Site
					{
						OFFSET 0.000000 0.000000 0.000000
					}
				}
			}
		}
	}
	JOINT rhip
	{
		OFFSET -0.060310 -0.090513 -0.013543
		CHANNELS 3 Zrotation Yrotation Xrotation
		JOINT rknee
		{
			OFFSET -0.043257 -0.383688 -0.004843
			CHANNELS 3 Zrotation Yrotation Xrotation
			JOINT rankle
			{
				OFFSET 0.019056 -0.420046 -0.034562
				CHANNELS 3 Zrotation Yrotation Xrotation
				JOINT rtoe
				{
					OFFSET -0.034840 -0.062106 0.130323
					CHANNELS 3 Zrotation Yrotation Xrotation
					End Site
					{
						OFFSET 0.000000 0.000000 0.000000
					}
				}
			}
		}
	}
	JOINT lowerback
	{
		OFFSET 0.004439 0.124404 -0.038385
		CHANNELS 3 Zrotation Yrotation Xrotation
		JOINT upperback
		{
			OFFSET 0.004488 0.137956 0.026820
			CHANNELS 3 Zrotation Yrotation Xrotation
			JOINT chest
			{
				OFFSET -0.002265 0.056032 0.002855
				CHANNELS 3 Zrotation Yrotation Xrotation
				JOINT lowerneck
				{
					OFFSET -0.013390 0.211636 -0.033468
					CHANNELS 3 Zrotation Yrotation Xrotation
					JOINT upperneck
					{
						OFFSET 0.010113 0.088937 0.050410
						CHANNELS 3 Zrotation Yrotation Xrotation
						End Site
						{
							OFFSET 0.000000 0.000000 0.000000
						}
					}
				}
				JOINT lclavicle
				{
					OFFSET 0.071702 0.114000 -0.018898
					CHANNELS 3 Zrotation Yrotation Xrotation
					JOINT lshoulder
					{
						OFFSET 0.122921 0.045205 -0.019046
						CHANNELS 3 Zrotation Yrotation Xrotation
						JOINT lelbow
						{
							OFFSET 0.255332 -0.015649 -0.022946
							CHANNELS 3 Zrotation Yrotation Xrotation
							JOINT lwrist
							{
								OFFSET 0.265709 0.012698 -0.007375
								CHANNELS 3 Zrotation Yrotation Xrotation
								End Site
								{
									OFFSET 0.000000 0.000000 0.000000
								}
							}
						}
					}
				}
				JOINT rclavicle
				{
					OFFSET -0.082954 0.112472 -0.023707
					CHANNELS 3 Zrotation Yrotation Xrotation
					JOINT rshoulder
					{
						OFFSET -0.113228 0.046853 -0.008472
						CHANNELS 3 Zrotation Yrotation Xrotation
						JOINT relbow
						{
							OFFSET -0.260127 -0.014369 -0.031269
							CHANNELS 3 Zrotation Yrotation Xrotation
							JOINT rwrist
							{
								OFFSET -0.269108 0.006794 -0.006027
								CHANNELS 3 Zrotation Yrotation Xrotation
								End Site
								{
									OFFSET 0.000000 0.000000 0.000000
								}
							}
						}
					}
				}
			}
		}
	}
}
MOTION
Frames: 8
Frame Time: 0.033333
-0.205638 0.990016 0.913176 55.858929 7.640062 88.137870 3.686096 1.019184 -41.200261 -7.042951 -7.323138 58.465955 4.139046 2.890447 -24.698349 0.000000 -0.000000 0.000000 -5.432147 -19.338796 -23.235933 -9.227355 -8.436689 81.874866 9.133721 -9.407939 -9.581172 0.000000 -0.000000 0.000000 4.579748 2.640796 69.217526 -8.491982 -2.732155 -8.734950 -0.688690 -0.910699 -2.761512 -16.150599 8.296245 -15.197270 -3.996846 14.678802 0.858638 -27.941089 -19.049310 1.219592 -22.400997 -4.844946 6.117181 16.387944 -71.891099 -12.900062 23.188536 -14.018784 -26.250212 24.299941 28.124126 -0.613675 32.399767 8.388612 10.897133 -12.995860 55.176692 -29.373987 -24.143616 19.237069 -27.200607 
-0.198277 0.980550 0.915667 57.480561 8.264610 88.207986 3.903507 1.371853 -40.531072 -7.400776 -8.610419 58.676862 3.907119 2.455669 -25.424653 0.000000 -0.000000 0.000000 -4.346334 -17.922912 -26.596742 -8.919500 -7.988405 80.086492 9.411833 -8.439788 -11.565518 0.000000 -0.000000 0.000000 4.326858 2.482110 69.552505 -8.445467 -2.227746 -9.115025 -0.464976 -0.990225 -2.664082 -15.744548 8.557239 -15.340413 -4.036085 14.158927 0.782297 -27.458987 -18.801011 0.972012 -23.287758 -5.420956 5.960647 17.421648 -71.851618 -13.901631 22.154274 -14.118519 -26.671191 23.810159 28.033774 -0.848412 32.731658 9.046261 10.795648 -14.109252 55.924541 -29.450688 -23.011532 19.198177 -27.569847 
-0.191140 0.971263 0.917526 59.360651 8.897730 88.502643 4.279865 1.545744 -40.138869 -7.842290 -9.712550 58.884688 3.688391 1.999387 -26.081860 0.000000 -0.000000 0.000000 -3.442889 -16.678374 -29.736772 -8.592618 -8.145793 76.435683 9.621524 -7.802483 -13.082298 0.000000 -0.000000 0.000000 3.875435 2.116253 69.470736 -8.034065 -1.720045 -9.078004 0.112909 -1.149532 -2.746574 -15.776234 8.348911 -15.663115 -4.114600 14.074281 0.685682 -27.696945 -18.184253 0.826763 -24.132608 -5.858932 5.755390 19.165424 -72.207702 -15.810694 21.240638 -14.164982 -26.636864 23.324983 28.015756 -0.624791 32.575574 9.963559 10.629650 -14.880707 56.822734 -29.714409 -22.454696 19.154058 -27.741299 
-0.185448 0.959827 0.918616 60.837603 9.468936 88.956267 5.037589 2.064528 -39.948603 -8.418106 -10.556751 59.099575 3.433203 1.196178 -26.754602 0.000000 -0.000000 0.000000 -2.461277 -14.719827 -32.775937 -7.648075 -8.164583 71.320448 9.844936 -6.690487 -14.227006 0.000000 -0.000000 0.000000 3.413476 2.093132 69.329795 -7.879503 -0.864722 -9.427118 0.424955 -1.393210 -2.783206 -15.431388 8.596095 -16.091024 -3.941081 13.430737 1.136216 -27.294267 -17.437303 0.605235 -25.275002 -6.665215 5.887608 19.900392 -72.317546 -16.406273 20.893474 -14.198877 -26.823859 23.106101 27.409334 -0.790938 33.218523 10.804441 10.799572 -16.363423 57.353311 -30.037592 -21.661659 19.110642 -27.733345 
-0.182405 0.950669 0.914615 62.276598 9.390640 90.903584 6.048585 1.219132 -41.927482 -8.955245 -9.706661 59.585462 3.527628 0.802707 -26.964808 0.000000 -0.000000 0.000000 -2.724087 -11.720836 -37.508809 -5.095635 -8.042258 65.653703 10.416526 -4.404796 -14.338152 0.000000 -0.000000 0.000000 1.687557 2.224957 66.359897 -7.100874 0.310701 -8.807413 0.611195 -0.986569 -2.595802 -14.339762 9.154992 -16.071882 -4.367398 12.016618 1.464618 -27.101964 -16.540907 0.400188 -26.618369 -8.162181 6.840416 21.970857 -71.760975 -18.147750 19.526606 -14.521612 -26.377734 23.016764 26.048065 -0.299880 33.521768 12.641016 11.045157 -18.387807 57.166714 -30.852656 -20.292622 19.288457 -28.335641 
-0.182201 0.939761 0.905700 63.317407 8.971981 94.364089 8.063558 0.253104 -45.872176 -9.737269 -7.339335 59.945061 3.634523 0.179040 -26.966944 0.000000 -0.000000 0.000000 -4.200584 -7.382500 -43.778763 -1.195475 -6.796881 59.171223 10.941846 -1.387792 -14.494179 0.000000 -0.000000 0.000000 -0.007831 3.333939 60.809946 -5.589191 1.486897 -7.359341 0.594641 -1.189268 -2.246505 -13.188781 10.181090 -16.399063 -5.113675 10.343254 1.940583 -26.752829 -14.960718 0.712540 -28.149931 -10.386506 7.661351 22.836779 -71.252660 -19.509014 17.667764 -15.594808 -25.800804 23.258470 23.794828 0.681204 33.719883 15.477701 11.733277 -20.661620 56.486785 -31.712416 -18.707982 19.211308 -28.671175 
-0.181423 0.927612 0.897054 64.612653 8.481810 97.746180 10.095625 -0.462151 -49.520310 -10.604378 -5.302203 60.004216 3.668311 -0.439079 -26.891641 0.000000 -0.000000 0.000000 -6.210939 -4.309491 -49.406768 2.083413 -5.121739 52.759226 12.230715 0.596527 -13.255468 0.000000 -0.000000 0.000000 -0.481974 4.055116 55.263615 -4.412196 1.673444 -5.609390 0.237611 -1.638142 -1.834985 -12.570454 10.801709 -16.671403 -5.611217 8.778850 2.121066 -26.458148 -13.748176 1.104715 -29.456000 -12.251227 8.540611 23.557016 -70.463529 -20.810245 17.527409 -16.129509 -24.788828 23.714535 22.141869 1.644613 33.859764 17.820450 12.278845 -22.537800 55.464976 -32.781978 -17.528502 19.367668 -28.793108 
-0.178755 0.914150 0.893268 65.924956 8.034238 99.558058 11.273589 -0.599784 -50.868909 -11.222042 -4.639085 59.582506 3.227736 -1.256881 -27.040882 0.000000 -0.000000 0.000000 -7.667491 -2.077337 -52.192832 2.834850 -2.807718 46.245559 14.165230 1.872269 -10.566124 0.000000 -0.000000 0.000000 -0.994743 4.229792 52.837014 -3.975104 1.984469 -5.136262 0.353366 -1.759538 -1.626756 -12.356955 10.795920 -17.045049 -5.840020 7.946309 2.313514 -26.157582 -13.023349 1.283600 -30.694791 -13.567892 9.208456 23.347709 -69.777706 -20.938100 18.711288 -16.455393 -24.459200 23.767385 21.191095 1.853438 34.322672 19.053357 12.791185 -23.661679 54.480953 -33.632501 -17.350310 19.565038 -29.052688 
